<svg width="713" height="773" viewBox="0 0 713 773" fill="none" xmlns="http://www.w3.org/2000/svg">
<circle cx="324.5" cy="355.5" r="303.5" stroke="url(#paint0_linear_1_328)" stroke-width="3" stroke-linecap="round" stroke-linejoin="round" stroke-dasharray="10 10"/>
<circle cx="324.5" cy="355.5" r="199.5" stroke="#E9E9E9" stroke-width="3" stroke-linecap="round" stroke-linejoin="round" stroke-dasharray="10 10"/>
<g filter="url(#filter0_d_1_328)">
<path d="M45 368C45 348.67 60.67 333 80 333H562C564.209 333 566 334.791 566 337V658C566 677.33 550.33 693 531 693H49C46.7909 693 45 691.209 45 689V368Z" fill="white"/>
</g>
<path d="M83.666 642.742V657H81.0781V645.76L77.6504 646.893V644.803L83.373 642.742H83.666ZM97.8652 648.67V651.062C97.8652 652.156 97.7546 653.09 97.5332 653.865C97.3118 654.64 96.9928 655.275 96.5762 655.77C96.1595 656.258 95.6615 656.619 95.082 656.854C94.5026 657.081 93.8581 657.195 93.1484 657.195C92.582 657.195 92.0547 657.124 91.5664 656.98C91.0781 656.831 90.6387 656.603 90.248 656.297C89.8639 655.984 89.5319 655.587 89.252 655.105C88.9785 654.624 88.7669 654.048 88.6172 653.377C88.474 652.706 88.4023 651.935 88.4023 651.062V648.67C88.4023 647.576 88.513 646.645 88.7344 645.877C88.9622 645.109 89.2845 644.48 89.7012 643.992C90.1178 643.504 90.6159 643.149 91.1953 642.928C91.7747 642.7 92.4193 642.586 93.1289 642.586C93.7018 642.586 94.2292 642.658 94.7109 642.801C95.1992 642.944 95.6354 643.169 96.0195 643.475C96.4102 643.774 96.7422 644.165 97.0156 644.646C97.2891 645.122 97.4974 645.695 97.6406 646.365C97.7904 647.029 97.8652 647.798 97.8652 648.67ZM95.2871 651.414V648.309C95.2871 647.762 95.2546 647.286 95.1895 646.883C95.1309 646.473 95.043 646.124 94.9258 645.838C94.8086 645.551 94.6621 645.32 94.4863 645.145C94.3105 644.962 94.1087 644.829 93.8809 644.744C93.653 644.66 93.4023 644.617 93.1289 644.617C92.7904 644.617 92.4876 644.686 92.2207 644.822C91.9538 644.952 91.7292 645.161 91.5469 645.447C91.3646 645.734 91.2246 646.115 91.127 646.59C91.0358 647.059 90.9902 647.632 90.9902 648.309V651.414C90.9902 651.961 91.0195 652.439 91.0781 652.85C91.1432 653.26 91.2344 653.611 91.3516 653.904C91.4753 654.197 91.6217 654.438 91.791 654.627C91.9668 654.809 92.1686 654.946 92.3965 655.037C92.6243 655.122 92.875 655.164 93.1484 655.164C93.4935 655.164 93.7962 655.096 94.0566 654.959C94.3236 654.822 94.5482 654.607 94.7305 654.314C94.9128 654.015 95.0495 653.628 95.1406 653.152C95.2383 652.671 95.2871 652.091 95.2871 651.414Z" fill="#A7A7A7"/>
<path d="M157.654 654.969V657H148.025V655.262L152.645 650.271C153.126 649.725 153.507 649.249 153.787 648.846C154.067 648.442 154.266 648.077 154.383 647.752C154.507 647.42 154.568 647.104 154.568 646.805C154.568 646.368 154.49 645.988 154.334 645.662C154.178 645.33 153.95 645.073 153.65 644.891C153.357 644.708 152.996 644.617 152.566 644.617C152.091 644.617 151.684 644.728 151.346 644.949C151.014 645.164 150.76 645.464 150.584 645.848C150.415 646.232 150.33 646.671 150.33 647.166H147.742C147.742 646.326 147.938 645.561 148.328 644.871C148.719 644.174 149.279 643.618 150.008 643.201C150.737 642.785 151.603 642.576 152.605 642.576C153.582 642.576 154.409 642.739 155.086 643.064C155.763 643.383 156.277 643.839 156.629 644.432C156.98 645.024 157.156 645.73 157.156 646.551C157.156 647.007 157.081 647.456 156.932 647.898C156.782 648.341 156.57 648.781 156.297 649.217C156.03 649.646 155.711 650.083 155.34 650.525C154.969 650.968 154.555 651.421 154.1 651.883L151.326 654.969H157.654ZM168.865 648.67V651.062C168.865 652.156 168.755 653.09 168.533 653.865C168.312 654.64 167.993 655.275 167.576 655.77C167.16 656.258 166.661 656.619 166.082 656.854C165.503 657.081 164.858 657.195 164.148 657.195C163.582 657.195 163.055 657.124 162.566 656.98C162.078 656.831 161.639 656.603 161.248 656.297C160.864 655.984 160.532 655.587 160.252 655.105C159.979 654.624 159.767 654.048 159.617 653.377C159.474 652.706 159.402 651.935 159.402 651.062V648.67C159.402 647.576 159.513 646.645 159.734 645.877C159.962 645.109 160.285 644.48 160.701 643.992C161.118 643.504 161.616 643.149 162.195 642.928C162.775 642.7 163.419 642.586 164.129 642.586C164.702 642.586 165.229 642.658 165.711 642.801C166.199 642.944 166.635 643.169 167.02 643.475C167.41 643.774 167.742 644.165 168.016 644.646C168.289 645.122 168.497 645.695 168.641 646.365C168.79 647.029 168.865 647.798 168.865 648.67ZM166.287 651.414V648.309C166.287 647.762 166.255 647.286 166.189 646.883C166.131 646.473 166.043 646.124 165.926 645.838C165.809 645.551 165.662 645.32 165.486 645.145C165.311 644.962 165.109 644.829 164.881 644.744C164.653 644.66 164.402 644.617 164.129 644.617C163.79 644.617 163.488 644.686 163.221 644.822C162.954 644.952 162.729 645.161 162.547 645.447C162.365 645.734 162.225 646.115 162.127 646.59C162.036 647.059 161.99 647.632 161.99 648.309V651.414C161.99 651.961 162.02 652.439 162.078 652.85C162.143 653.26 162.234 653.611 162.352 653.904C162.475 654.197 162.622 654.438 162.791 654.627C162.967 654.809 163.169 654.946 163.396 655.037C163.624 655.122 163.875 655.164 164.148 655.164C164.493 655.164 164.796 655.096 165.057 654.959C165.324 654.822 165.548 654.607 165.73 654.314C165.913 654.015 166.049 653.628 166.141 653.152C166.238 652.671 166.287 652.091 166.287 651.414Z" fill="#A7A7A7"/>
<path d="M221.848 648.748H223.303C223.817 648.748 224.24 648.66 224.572 648.484C224.911 648.302 225.161 648.055 225.324 647.742C225.493 647.423 225.578 647.055 225.578 646.639C225.578 646.229 225.503 645.874 225.354 645.574C225.204 645.268 224.976 645.034 224.67 644.871C224.37 644.702 223.986 644.617 223.518 644.617C223.14 644.617 222.792 644.692 222.473 644.842C222.16 644.992 221.91 645.206 221.721 645.486C221.538 645.76 221.447 646.089 221.447 646.473H218.859C218.859 645.704 219.061 645.031 219.465 644.451C219.875 643.865 220.428 643.406 221.125 643.074C221.822 642.742 222.6 642.576 223.459 642.576C224.396 642.576 225.217 642.732 225.92 643.045C226.63 643.351 227.18 643.803 227.57 644.402C227.967 645.001 228.166 645.743 228.166 646.629C228.166 647.052 228.065 647.475 227.863 647.898C227.668 648.315 227.378 648.693 226.994 649.031C226.617 649.363 226.151 649.633 225.598 649.842C225.051 650.044 224.423 650.145 223.713 650.145H221.848V648.748ZM221.848 650.74V649.363H223.713C224.514 649.363 225.207 649.458 225.793 649.646C226.385 649.829 226.874 650.089 227.258 650.428C227.642 650.76 227.925 651.147 228.107 651.59C228.296 652.033 228.391 652.508 228.391 653.016C228.391 653.68 228.267 654.272 228.02 654.793C227.772 655.307 227.424 655.743 226.975 656.102C226.532 656.46 226.011 656.733 225.412 656.922C224.813 657.104 224.165 657.195 223.469 657.195C222.863 657.195 222.274 657.114 221.701 656.951C221.135 656.782 220.624 656.531 220.168 656.199C219.712 655.861 219.351 655.438 219.084 654.93C218.817 654.415 218.684 653.82 218.684 653.143H221.271C221.271 653.533 221.366 653.882 221.555 654.188C221.75 654.493 222.017 654.734 222.355 654.91C222.701 655.079 223.088 655.164 223.518 655.164C223.993 655.164 224.4 655.079 224.738 654.91C225.083 654.734 225.347 654.487 225.529 654.168C225.712 653.842 225.803 653.455 225.803 653.006C225.803 652.472 225.702 652.039 225.5 651.707C225.298 651.375 225.008 651.131 224.631 650.975C224.26 650.818 223.817 650.74 223.303 650.74H221.848ZM239.865 648.67V651.062C239.865 652.156 239.755 653.09 239.533 653.865C239.312 654.64 238.993 655.275 238.576 655.77C238.16 656.258 237.661 656.619 237.082 656.854C236.503 657.081 235.858 657.195 235.148 657.195C234.582 657.195 234.055 657.124 233.566 656.98C233.078 656.831 232.639 656.603 232.248 656.297C231.864 655.984 231.532 655.587 231.252 655.105C230.979 654.624 230.767 654.048 230.617 653.377C230.474 652.706 230.402 651.935 230.402 651.062V648.67C230.402 647.576 230.513 646.645 230.734 645.877C230.962 645.109 231.285 644.48 231.701 643.992C232.118 643.504 232.616 643.149 233.195 642.928C233.775 642.7 234.419 642.586 235.129 642.586C235.702 642.586 236.229 642.658 236.711 642.801C237.199 642.944 237.635 643.169 238.02 643.475C238.41 643.774 238.742 644.165 239.016 644.646C239.289 645.122 239.497 645.695 239.641 646.365C239.79 647.029 239.865 647.798 239.865 648.67ZM237.287 651.414V648.309C237.287 647.762 237.255 647.286 237.189 646.883C237.131 646.473 237.043 646.124 236.926 645.838C236.809 645.551 236.662 645.32 236.486 645.145C236.311 644.962 236.109 644.829 235.881 644.744C235.653 644.66 235.402 644.617 235.129 644.617C234.79 644.617 234.488 644.686 234.221 644.822C233.954 644.952 233.729 645.161 233.547 645.447C233.365 645.734 233.225 646.115 233.127 646.59C233.036 647.059 232.99 647.632 232.99 648.309V651.414C232.99 651.961 233.02 652.439 233.078 652.85C233.143 653.26 233.234 653.611 233.352 653.904C233.475 654.197 233.622 654.438 233.791 654.627C233.967 654.809 234.169 654.946 234.396 655.037C234.624 655.122 234.875 655.164 235.148 655.164C235.493 655.164 235.796 655.096 236.057 654.959C236.324 654.822 236.548 654.607 236.73 654.314C236.913 654.015 237.049 653.628 237.141 653.152C237.238 652.671 237.287 652.091 237.287 651.414Z" fill="#A7A7A7"/>
<path d="M299.898 651.814V653.846H289.654L289.547 652.283L295.572 642.781H297.633L295.406 646.561L292.174 651.814H299.898ZM298.209 642.781V657H295.621V642.781H298.209ZM310.865 648.67V651.062C310.865 652.156 310.755 653.09 310.533 653.865C310.312 654.64 309.993 655.275 309.576 655.77C309.16 656.258 308.661 656.619 308.082 656.854C307.503 657.081 306.858 657.195 306.148 657.195C305.582 657.195 305.055 657.124 304.566 656.98C304.078 656.831 303.639 656.603 303.248 656.297C302.864 655.984 302.532 655.587 302.252 655.105C301.979 654.624 301.767 654.048 301.617 653.377C301.474 652.706 301.402 651.935 301.402 651.062V648.67C301.402 647.576 301.513 646.645 301.734 645.877C301.962 645.109 302.285 644.48 302.701 643.992C303.118 643.504 303.616 643.149 304.195 642.928C304.775 642.7 305.419 642.586 306.129 642.586C306.702 642.586 307.229 642.658 307.711 642.801C308.199 642.944 308.635 643.169 309.02 643.475C309.41 643.774 309.742 644.165 310.016 644.646C310.289 645.122 310.497 645.695 310.641 646.365C310.79 647.029 310.865 647.798 310.865 648.67ZM308.287 651.414V648.309C308.287 647.762 308.255 647.286 308.189 646.883C308.131 646.473 308.043 646.124 307.926 645.838C307.809 645.551 307.662 645.32 307.486 645.145C307.311 644.962 307.109 644.829 306.881 644.744C306.653 644.66 306.402 644.617 306.129 644.617C305.79 644.617 305.488 644.686 305.221 644.822C304.954 644.952 304.729 645.161 304.547 645.447C304.365 645.734 304.225 646.115 304.127 646.59C304.036 647.059 303.99 647.632 303.99 648.309V651.414C303.99 651.961 304.02 652.439 304.078 652.85C304.143 653.26 304.234 653.611 304.352 653.904C304.475 654.197 304.622 654.438 304.791 654.627C304.967 654.809 305.169 654.946 305.396 655.037C305.624 655.122 305.875 655.164 306.148 655.164C306.493 655.164 306.796 655.096 307.057 654.959C307.324 654.822 307.548 654.607 307.73 654.314C307.913 654.015 308.049 653.628 308.141 653.152C308.238 652.671 308.287 652.091 308.287 651.414Z" fill="#A7A7A7"/>
<path d="M363.584 650.457L361.523 649.959L362.314 642.781H370.137V644.92H364.453L364.082 648.24C364.284 648.117 364.577 647.993 364.961 647.869C365.352 647.739 365.791 647.674 366.279 647.674C366.956 647.674 367.562 647.785 368.096 648.006C368.63 648.221 369.082 648.533 369.453 648.943C369.831 649.354 370.114 649.855 370.303 650.447C370.498 651.033 370.596 651.697 370.596 652.439C370.596 653.09 370.498 653.702 370.303 654.275C370.114 654.842 369.824 655.346 369.434 655.789C369.043 656.225 368.551 656.57 367.959 656.824C367.367 657.072 366.67 657.195 365.869 657.195C365.264 657.195 364.681 657.107 364.121 656.932C363.568 656.749 363.07 656.486 362.627 656.141C362.184 655.789 361.829 655.359 361.562 654.852C361.302 654.344 361.159 653.761 361.133 653.104H363.682C363.727 653.54 363.844 653.911 364.033 654.217C364.222 654.523 364.469 654.757 364.775 654.92C365.088 655.083 365.449 655.164 365.859 655.164C366.23 655.164 366.549 655.096 366.816 654.959C367.09 654.816 367.314 654.617 367.49 654.363C367.666 654.109 367.796 653.81 367.881 653.465C367.965 653.12 368.008 652.742 368.008 652.332C368.008 651.935 367.959 651.574 367.861 651.248C367.764 650.916 367.614 650.63 367.412 650.389C367.21 650.148 366.956 649.962 366.65 649.832C366.351 649.702 365.999 649.637 365.596 649.637C365.055 649.637 364.639 649.718 364.346 649.881C364.059 650.044 363.805 650.236 363.584 650.457ZM381.865 648.67V651.062C381.865 652.156 381.755 653.09 381.533 653.865C381.312 654.64 380.993 655.275 380.576 655.77C380.16 656.258 379.661 656.619 379.082 656.854C378.503 657.081 377.858 657.195 377.148 657.195C376.582 657.195 376.055 657.124 375.566 656.98C375.078 656.831 374.639 656.603 374.248 656.297C373.864 655.984 373.532 655.587 373.252 655.105C372.979 654.624 372.767 654.048 372.617 653.377C372.474 652.706 372.402 651.935 372.402 651.062V648.67C372.402 647.576 372.513 646.645 372.734 645.877C372.962 645.109 373.285 644.48 373.701 643.992C374.118 643.504 374.616 643.149 375.195 642.928C375.775 642.7 376.419 642.586 377.129 642.586C377.702 642.586 378.229 642.658 378.711 642.801C379.199 642.944 379.635 643.169 380.02 643.475C380.41 643.774 380.742 644.165 381.016 644.646C381.289 645.122 381.497 645.695 381.641 646.365C381.79 647.029 381.865 647.798 381.865 648.67ZM379.287 651.414V648.309C379.287 647.762 379.255 647.286 379.189 646.883C379.131 646.473 379.043 646.124 378.926 645.838C378.809 645.551 378.662 645.32 378.486 645.145C378.311 644.962 378.109 644.829 377.881 644.744C377.653 644.66 377.402 644.617 377.129 644.617C376.79 644.617 376.488 644.686 376.221 644.822C375.954 644.952 375.729 645.161 375.547 645.447C375.365 645.734 375.225 646.115 375.127 646.59C375.036 647.059 374.99 647.632 374.99 648.309V651.414C374.99 651.961 375.02 652.439 375.078 652.85C375.143 653.26 375.234 653.611 375.352 653.904C375.475 654.197 375.622 654.438 375.791 654.627C375.967 654.809 376.169 654.946 376.396 655.037C376.624 655.122 376.875 655.164 377.148 655.164C377.493 655.164 377.796 655.096 378.057 654.959C378.324 654.822 378.548 654.607 378.73 654.314C378.913 654.015 379.049 653.628 379.141 653.152C379.238 652.671 379.287 652.091 379.287 651.414Z" fill="#A7A7A7"/>
<path d="M439.203 642.664H439.555V644.744H439.389C438.601 644.744 437.908 644.865 437.309 645.105C436.716 645.346 436.221 645.685 435.824 646.121C435.434 646.551 435.137 647.062 434.936 647.654C434.734 648.24 434.633 648.882 434.633 649.578V651.883C434.633 652.423 434.688 652.898 434.799 653.309C434.916 653.712 435.076 654.054 435.277 654.334C435.486 654.607 435.727 654.812 436 654.949C436.28 655.086 436.586 655.154 436.918 655.154C437.25 655.154 437.549 655.086 437.816 654.949C438.083 654.812 438.311 654.62 438.5 654.373C438.695 654.119 438.842 653.823 438.939 653.484C439.044 653.146 439.096 652.775 439.096 652.371C439.096 651.974 439.047 651.606 438.949 651.268C438.852 650.929 438.708 650.633 438.52 650.379C438.331 650.118 438.096 649.92 437.816 649.783C437.543 649.64 437.23 649.568 436.879 649.568C436.423 649.568 436.016 649.676 435.658 649.891C435.3 650.099 435.017 650.372 434.809 650.711C434.6 651.049 434.486 651.408 434.467 651.785L433.598 651.355C433.63 650.802 433.747 650.294 433.949 649.832C434.158 649.37 434.434 648.966 434.779 648.621C435.131 648.276 435.544 648.009 436.02 647.82C436.501 647.632 437.035 647.537 437.621 647.537C438.298 647.537 438.891 647.667 439.398 647.928C439.906 648.182 440.326 648.53 440.658 648.973C440.997 649.415 441.251 649.926 441.42 650.506C441.589 651.079 441.674 651.684 441.674 652.322C441.674 653.006 441.563 653.644 441.342 654.236C441.127 654.829 440.814 655.346 440.404 655.789C439.994 656.232 439.499 656.577 438.92 656.824C438.34 657.072 437.689 657.195 436.967 657.195C436.205 657.195 435.521 657.052 434.916 656.766C434.317 656.479 433.803 656.082 433.373 655.574C432.943 655.066 432.615 654.474 432.387 653.797C432.159 653.12 432.045 652.387 432.045 651.6V650.564C432.045 649.451 432.198 648.416 432.504 647.459C432.81 646.502 433.262 645.665 433.861 644.949C434.467 644.227 435.215 643.667 436.107 643.27C436.999 642.866 438.031 642.664 439.203 642.664ZM452.865 648.67V651.062C452.865 652.156 452.755 653.09 452.533 653.865C452.312 654.64 451.993 655.275 451.576 655.77C451.16 656.258 450.661 656.619 450.082 656.854C449.503 657.081 448.858 657.195 448.148 657.195C447.582 657.195 447.055 657.124 446.566 656.98C446.078 656.831 445.639 656.603 445.248 656.297C444.864 655.984 444.532 655.587 444.252 655.105C443.979 654.624 443.767 654.048 443.617 653.377C443.474 652.706 443.402 651.935 443.402 651.062V648.67C443.402 647.576 443.513 646.645 443.734 645.877C443.962 645.109 444.285 644.48 444.701 643.992C445.118 643.504 445.616 643.149 446.195 642.928C446.775 642.7 447.419 642.586 448.129 642.586C448.702 642.586 449.229 642.658 449.711 642.801C450.199 642.944 450.635 643.169 451.02 643.475C451.41 643.774 451.742 644.165 452.016 644.646C452.289 645.122 452.497 645.695 452.641 646.365C452.79 647.029 452.865 647.798 452.865 648.67ZM450.287 651.414V648.309C450.287 647.762 450.255 647.286 450.189 646.883C450.131 646.473 450.043 646.124 449.926 645.838C449.809 645.551 449.662 645.32 449.486 645.145C449.311 644.962 449.109 644.829 448.881 644.744C448.653 644.66 448.402 644.617 448.129 644.617C447.79 644.617 447.488 644.686 447.221 644.822C446.954 644.952 446.729 645.161 446.547 645.447C446.365 645.734 446.225 646.115 446.127 646.59C446.036 647.059 445.99 647.632 445.99 648.309V651.414C445.99 651.961 446.02 652.439 446.078 652.85C446.143 653.26 446.234 653.611 446.352 653.904C446.475 654.197 446.622 654.438 446.791 654.627C446.967 654.809 447.169 654.946 447.396 655.037C447.624 655.122 447.875 655.164 448.148 655.164C448.493 655.164 448.796 655.096 449.057 654.959C449.324 654.822 449.548 654.607 449.73 654.314C449.913 654.015 450.049 653.628 450.141 653.152C450.238 652.671 450.287 652.091 450.287 651.414Z" fill="#A7A7A7"/>
<path d="M512.576 642.781V644.188L506.99 657H504.266L509.852 644.812H502.625V642.781H512.576ZM523.865 648.67V651.062C523.865 652.156 523.755 653.09 523.533 653.865C523.312 654.64 522.993 655.275 522.576 655.77C522.16 656.258 521.661 656.619 521.082 656.854C520.503 657.081 519.858 657.195 519.148 657.195C518.582 657.195 518.055 657.124 517.566 656.98C517.078 656.831 516.639 656.603 516.248 656.297C515.864 655.984 515.532 655.587 515.252 655.105C514.979 654.624 514.767 654.048 514.617 653.377C514.474 652.706 514.402 651.935 514.402 651.062V648.67C514.402 647.576 514.513 646.645 514.734 645.877C514.962 645.109 515.285 644.48 515.701 643.992C516.118 643.504 516.616 643.149 517.195 642.928C517.775 642.7 518.419 642.586 519.129 642.586C519.702 642.586 520.229 642.658 520.711 642.801C521.199 642.944 521.635 643.169 522.02 643.475C522.41 643.774 522.742 644.165 523.016 644.646C523.289 645.122 523.497 645.695 523.641 646.365C523.79 647.029 523.865 647.798 523.865 648.67ZM521.287 651.414V648.309C521.287 647.762 521.255 647.286 521.189 646.883C521.131 646.473 521.043 646.124 520.926 645.838C520.809 645.551 520.662 645.32 520.486 645.145C520.311 644.962 520.109 644.829 519.881 644.744C519.653 644.66 519.402 644.617 519.129 644.617C518.79 644.617 518.488 644.686 518.221 644.822C517.954 644.952 517.729 645.161 517.547 645.447C517.365 645.734 517.225 646.115 517.127 646.59C517.036 647.059 516.99 647.632 516.99 648.309V651.414C516.99 651.961 517.02 652.439 517.078 652.85C517.143 653.26 517.234 653.611 517.352 653.904C517.475 654.197 517.622 654.438 517.791 654.627C517.967 654.809 518.169 654.946 518.396 655.037C518.624 655.122 518.875 655.164 519.148 655.164C519.493 655.164 519.796 655.096 520.057 654.959C520.324 654.822 520.548 654.607 520.73 654.314C520.913 654.015 521.049 653.628 521.141 653.152C521.238 652.671 521.287 652.091 521.287 651.414Z" fill="#A7A7A7"/>
<path d="M146.028 552.105C130.646 554.715 84.5 626 84.5 626H527.5V392C527.5 392 484.431 479.634 472.125 481.289C459.819 482.945 432.132 425.247 413.674 425.868C395.215 426.489 367.528 533.011 349.069 533.632C330.611 534.253 302.924 481.289 284.465 481.289C266.007 481.289 233.458 585.554 215 588C196.542 590.446 167.562 548.451 146.028 552.105Z" fill="url(#paint1_linear_1_328)" fill-opacity="0.4"/>
<path d="M84 623C84 623 130.646 554.715 146.028 552.105C167.562 548.451 191 587.5 213.5 587.5C236 587.5 266.007 481.289 284.465 481.289C302.924 481.289 330.611 534.253 349.069 533.632C367.528 533.011 395.215 426.489 413.674 425.868C432.132 425.247 459.819 482.945 472.125 481.289C484.431 479.634 524.5 391.5 524.5 391.5" stroke="#20B9B0" stroke-width="6" stroke-linecap="round"/>
<path d="M150.5 500L150.5 626" stroke="#FF8181" stroke-width="2.2" stroke-linecap="round" stroke-dasharray="5 5"/>
<circle cx="150" cy="552.5" r="9.5" fill="#FF8181"/>
<circle cx="150" cy="552.5" r="5.5" fill="#FCDADA"/>
<rect x="112.5" y="493" width="79" height="31" rx="2" fill="#FF8181"/>
<path d="M137.154 512.969V515H127.525V513.262L132.145 508.271C132.626 507.725 133.007 507.249 133.287 506.846C133.567 506.442 133.766 506.077 133.883 505.752C134.007 505.42 134.068 505.104 134.068 504.805C134.068 504.368 133.99 503.988 133.834 503.662C133.678 503.33 133.45 503.073 133.15 502.891C132.857 502.708 132.496 502.617 132.066 502.617C131.591 502.617 131.184 502.728 130.846 502.949C130.514 503.164 130.26 503.464 130.084 503.848C129.915 504.232 129.83 504.671 129.83 505.166H127.242C127.242 504.326 127.438 503.561 127.828 502.871C128.219 502.174 128.779 501.618 129.508 501.201C130.237 500.785 131.103 500.576 132.105 500.576C133.082 500.576 133.909 500.739 134.586 501.064C135.263 501.383 135.777 501.839 136.129 502.432C136.48 503.024 136.656 503.73 136.656 504.551C136.656 505.007 136.581 505.456 136.432 505.898C136.282 506.341 136.07 506.781 135.797 507.217C135.53 507.646 135.211 508.083 134.84 508.525C134.469 508.968 134.055 509.421 133.6 509.883L130.826 512.969H137.154ZM148.824 509.814V511.846H138.58L138.473 510.283L144.498 500.781H146.559L144.332 504.561L141.1 509.814H148.824ZM147.135 500.781V515H144.547V500.781H147.135ZM150.621 513.74C150.621 513.35 150.755 513.021 151.021 512.754C151.288 512.487 151.65 512.354 152.105 512.354C152.561 512.354 152.923 512.487 153.189 512.754C153.456 513.021 153.59 513.35 153.59 513.74C153.59 514.124 153.456 514.45 153.189 514.717C152.923 514.977 152.561 515.107 152.105 515.107C151.65 515.107 151.288 514.977 151.021 514.717C150.755 514.45 150.621 514.124 150.621 513.74ZM165.475 506.67V509.062C165.475 510.156 165.364 511.09 165.143 511.865C164.921 512.64 164.602 513.275 164.186 513.77C163.769 514.258 163.271 514.619 162.691 514.854C162.112 515.081 161.467 515.195 160.758 515.195C160.191 515.195 159.664 515.124 159.176 514.98C158.688 514.831 158.248 514.603 157.857 514.297C157.473 513.984 157.141 513.587 156.861 513.105C156.588 512.624 156.376 512.048 156.227 511.377C156.083 510.706 156.012 509.935 156.012 509.062V506.67C156.012 505.576 156.122 504.645 156.344 503.877C156.572 503.109 156.894 502.48 157.311 501.992C157.727 501.504 158.225 501.149 158.805 500.928C159.384 500.7 160.029 500.586 160.738 500.586C161.311 500.586 161.839 500.658 162.32 500.801C162.809 500.944 163.245 501.169 163.629 501.475C164.02 501.774 164.352 502.165 164.625 502.646C164.898 503.122 165.107 503.695 165.25 504.365C165.4 505.029 165.475 505.798 165.475 506.67ZM162.896 509.414V506.309C162.896 505.762 162.864 505.286 162.799 504.883C162.74 504.473 162.652 504.124 162.535 503.838C162.418 503.551 162.271 503.32 162.096 503.145C161.92 502.962 161.718 502.829 161.49 502.744C161.262 502.66 161.012 502.617 160.738 502.617C160.4 502.617 160.097 502.686 159.83 502.822C159.563 502.952 159.339 503.161 159.156 503.447C158.974 503.734 158.834 504.115 158.736 504.59C158.645 505.059 158.6 505.632 158.6 506.309V509.414C158.6 509.961 158.629 510.439 158.688 510.85C158.753 511.26 158.844 511.611 158.961 511.904C159.085 512.197 159.231 512.438 159.4 512.627C159.576 512.809 159.778 512.946 160.006 513.037C160.234 513.122 160.484 513.164 160.758 513.164C161.103 513.164 161.406 513.096 161.666 512.959C161.933 512.822 162.158 512.607 162.34 512.314C162.522 512.015 162.659 511.628 162.75 511.152C162.848 510.671 162.896 510.091 162.896 509.414ZM176.92 511.113C176.92 511.999 176.712 512.747 176.295 513.359C175.885 513.965 175.322 514.424 174.605 514.736C173.896 515.042 173.089 515.195 172.184 515.195C171.285 515.195 170.475 515.042 169.752 514.736C169.036 514.424 168.466 513.965 168.043 513.359C167.626 512.747 167.418 511.999 167.418 511.113C167.418 510.521 167.535 509.984 167.77 509.502C168.01 509.02 168.342 508.607 168.766 508.262C169.189 507.91 169.69 507.643 170.27 507.461C170.849 507.272 171.48 507.178 172.164 507.178C173.076 507.178 173.889 507.344 174.605 507.676C175.328 508.001 175.895 508.46 176.305 509.053C176.715 509.639 176.92 510.326 176.92 511.113ZM174.322 510.957C174.322 510.501 174.231 510.107 174.049 509.775C173.873 509.437 173.622 509.176 173.297 508.994C172.971 508.812 172.594 508.721 172.164 508.721C171.728 508.721 171.347 508.812 171.021 508.994C170.702 509.176 170.452 509.437 170.27 509.775C170.094 510.107 170.006 510.501 170.006 510.957C170.006 511.419 170.094 511.816 170.27 512.148C170.452 512.474 170.706 512.725 171.031 512.9C171.357 513.076 171.741 513.164 172.184 513.164C172.626 513.164 173.007 513.076 173.326 512.9C173.645 512.725 173.889 512.474 174.059 512.148C174.234 511.816 174.322 511.419 174.322 510.957ZM176.607 504.531C176.607 505.247 176.419 505.885 176.041 506.445C175.663 506.999 175.139 507.432 174.469 507.744C173.805 508.057 173.043 508.213 172.184 508.213C171.324 508.213 170.556 508.057 169.879 507.744C169.208 507.432 168.681 506.999 168.297 506.445C167.919 505.885 167.73 505.247 167.73 504.531C167.73 503.685 167.923 502.969 168.307 502.383C168.691 501.79 169.215 501.341 169.879 501.035C170.549 500.729 171.311 500.576 172.164 500.576C173.03 500.576 173.798 500.729 174.469 501.035C175.139 501.341 175.663 501.79 176.041 502.383C176.419 502.969 176.607 503.685 176.607 504.531ZM174.029 504.639C174.029 504.235 173.954 503.883 173.805 503.584C173.655 503.278 173.44 503.04 173.16 502.871C172.887 502.702 172.555 502.617 172.164 502.617C171.786 502.617 171.461 502.699 171.188 502.861C170.914 503.024 170.702 503.258 170.553 503.564C170.403 503.864 170.328 504.222 170.328 504.639C170.328 505.049 170.403 505.407 170.553 505.713C170.702 506.019 170.914 506.26 171.188 506.436C171.467 506.605 171.799 506.689 172.184 506.689C172.568 506.689 172.896 506.605 173.17 506.436C173.443 506.26 173.655 506.019 173.805 505.713C173.954 505.407 174.029 505.049 174.029 504.639Z" fill="white"/>
<path d="M414.5 403L414.5 626" stroke="#37D9D0" stroke-width="2.2" stroke-linecap="round" stroke-dasharray="5 5"/>
<rect x="374.5" y="375" width="79" height="33" rx="2" fill="#20B2AA"/>
<path d="M399.398 392.814V394.846H389.154L389.047 393.283L395.072 383.781H397.133L394.906 387.561L391.674 392.814H399.398ZM397.709 383.781V398H395.121V383.781H397.709ZM410.385 394.113C410.385 394.999 410.176 395.747 409.76 396.359C409.35 396.965 408.786 397.424 408.07 397.736C407.361 398.042 406.553 398.195 405.648 398.195C404.75 398.195 403.939 398.042 403.217 397.736C402.501 397.424 401.931 396.965 401.508 396.359C401.091 395.747 400.883 394.999 400.883 394.113C400.883 393.521 401 392.984 401.234 392.502C401.475 392.02 401.807 391.607 402.23 391.262C402.654 390.91 403.155 390.643 403.734 390.461C404.314 390.272 404.945 390.178 405.629 390.178C406.54 390.178 407.354 390.344 408.07 390.676C408.793 391.001 409.359 391.46 409.77 392.053C410.18 392.639 410.385 393.326 410.385 394.113ZM407.787 393.957C407.787 393.501 407.696 393.107 407.514 392.775C407.338 392.437 407.087 392.176 406.762 391.994C406.436 391.812 406.059 391.721 405.629 391.721C405.193 391.721 404.812 391.812 404.486 391.994C404.167 392.176 403.917 392.437 403.734 392.775C403.559 393.107 403.471 393.501 403.471 393.957C403.471 394.419 403.559 394.816 403.734 395.148C403.917 395.474 404.171 395.725 404.496 395.9C404.822 396.076 405.206 396.164 405.648 396.164C406.091 396.164 406.472 396.076 406.791 395.9C407.11 395.725 407.354 395.474 407.523 395.148C407.699 394.816 407.787 394.419 407.787 393.957ZM410.072 387.531C410.072 388.247 409.883 388.885 409.506 389.445C409.128 389.999 408.604 390.432 407.934 390.744C407.27 391.057 406.508 391.213 405.648 391.213C404.789 391.213 404.021 391.057 403.344 390.744C402.673 390.432 402.146 389.999 401.762 389.445C401.384 388.885 401.195 388.247 401.195 387.531C401.195 386.685 401.387 385.969 401.771 385.383C402.156 384.79 402.68 384.341 403.344 384.035C404.014 383.729 404.776 383.576 405.629 383.576C406.495 383.576 407.263 383.729 407.934 384.035C408.604 384.341 409.128 384.79 409.506 385.383C409.883 385.969 410.072 386.685 410.072 387.531ZM407.494 387.639C407.494 387.235 407.419 386.883 407.27 386.584C407.12 386.278 406.905 386.04 406.625 385.871C406.352 385.702 406.02 385.617 405.629 385.617C405.251 385.617 404.926 385.699 404.652 385.861C404.379 386.024 404.167 386.258 404.018 386.564C403.868 386.864 403.793 387.222 403.793 387.639C403.793 388.049 403.868 388.407 404.018 388.713C404.167 389.019 404.379 389.26 404.652 389.436C404.932 389.605 405.264 389.689 405.648 389.689C406.033 389.689 406.361 389.605 406.635 389.436C406.908 389.26 407.12 389.019 407.27 388.713C407.419 388.407 407.494 388.049 407.494 387.639ZM412.621 396.74C412.621 396.35 412.755 396.021 413.021 395.754C413.288 395.487 413.65 395.354 414.105 395.354C414.561 395.354 414.923 395.487 415.189 395.754C415.456 396.021 415.59 396.35 415.59 396.74C415.59 397.124 415.456 397.45 415.189 397.717C414.923 397.977 414.561 398.107 414.105 398.107C413.65 398.107 413.288 397.977 413.021 397.717C412.755 397.45 412.621 397.124 412.621 396.74ZM427.475 389.67V392.062C427.475 393.156 427.364 394.09 427.143 394.865C426.921 395.64 426.602 396.275 426.186 396.77C425.769 397.258 425.271 397.619 424.691 397.854C424.112 398.081 423.467 398.195 422.758 398.195C422.191 398.195 421.664 398.124 421.176 397.98C420.688 397.831 420.248 397.603 419.857 397.297C419.473 396.984 419.141 396.587 418.861 396.105C418.588 395.624 418.376 395.048 418.227 394.377C418.083 393.706 418.012 392.935 418.012 392.062V389.67C418.012 388.576 418.122 387.645 418.344 386.877C418.572 386.109 418.894 385.48 419.311 384.992C419.727 384.504 420.225 384.149 420.805 383.928C421.384 383.7 422.029 383.586 422.738 383.586C423.311 383.586 423.839 383.658 424.32 383.801C424.809 383.944 425.245 384.169 425.629 384.475C426.02 384.774 426.352 385.165 426.625 385.646C426.898 386.122 427.107 386.695 427.25 387.365C427.4 388.029 427.475 388.798 427.475 389.67ZM424.896 392.414V389.309C424.896 388.762 424.864 388.286 424.799 387.883C424.74 387.473 424.652 387.124 424.535 386.838C424.418 386.551 424.271 386.32 424.096 386.145C423.92 385.962 423.718 385.829 423.49 385.744C423.262 385.66 423.012 385.617 422.738 385.617C422.4 385.617 422.097 385.686 421.83 385.822C421.563 385.952 421.339 386.161 421.156 386.447C420.974 386.734 420.834 387.115 420.736 387.59C420.645 388.059 420.6 388.632 420.6 389.309V392.414C420.6 392.961 420.629 393.439 420.688 393.85C420.753 394.26 420.844 394.611 420.961 394.904C421.085 395.197 421.231 395.438 421.4 395.627C421.576 395.809 421.778 395.946 422.006 396.037C422.234 396.122 422.484 396.164 422.758 396.164C423.103 396.164 423.406 396.096 423.666 395.959C423.933 395.822 424.158 395.607 424.34 395.314C424.522 395.015 424.659 394.628 424.75 394.152C424.848 393.671 424.896 393.091 424.896 392.414ZM431.43 395.998H431.615C432.455 395.998 433.165 395.891 433.744 395.676C434.33 395.461 434.802 395.158 435.16 394.768C435.525 394.37 435.788 393.898 435.951 393.352C436.12 392.798 436.205 392.186 436.205 391.516V388.938C436.205 388.391 436.15 387.912 436.039 387.502C435.928 387.085 435.772 386.737 435.57 386.457C435.375 386.177 435.144 385.969 434.877 385.832C434.61 385.689 434.324 385.617 434.018 385.617C433.679 385.617 433.38 385.695 433.119 385.852C432.859 386.008 432.637 386.223 432.455 386.496C432.279 386.763 432.143 387.072 432.045 387.424C431.954 387.775 431.908 388.146 431.908 388.537C431.908 388.915 431.951 389.276 432.035 389.621C432.126 389.966 432.26 390.272 432.436 390.539C432.618 390.806 432.846 391.018 433.119 391.174C433.393 391.324 433.712 391.398 434.076 391.398C434.421 391.398 434.734 391.333 435.014 391.203C435.3 391.066 435.548 390.887 435.756 390.666C435.964 390.438 436.124 390.188 436.234 389.914C436.352 389.634 436.417 389.351 436.43 389.064L437.338 389.455C437.338 389.93 437.237 390.399 437.035 390.861C436.84 391.324 436.563 391.743 436.205 392.121C435.854 392.492 435.443 392.792 434.975 393.02C434.506 393.241 434.001 393.352 433.461 393.352C432.79 393.352 432.198 393.228 431.684 392.98C431.169 392.733 430.736 392.391 430.385 391.955C430.04 391.512 429.779 391.005 429.604 390.432C429.428 389.852 429.34 389.234 429.34 388.576C429.34 387.893 429.447 387.251 429.662 386.652C429.877 386.047 430.186 385.516 430.59 385.061C431 384.598 431.495 384.237 432.074 383.977C432.654 383.71 433.305 383.576 434.027 383.576C434.776 383.576 435.443 383.723 436.029 384.016C436.615 384.309 437.113 384.715 437.523 385.236C437.934 385.751 438.246 386.359 438.461 387.062C438.682 387.766 438.793 388.534 438.793 389.367V390.275C438.793 391.154 438.705 391.988 438.529 392.775C438.354 393.563 438.083 394.283 437.719 394.934C437.354 395.585 436.889 396.148 436.322 396.623C435.762 397.098 435.092 397.466 434.311 397.727C433.536 397.98 432.65 398.107 431.654 398.107H431.43V395.998Z" fill="white"/>
<circle cx="414" cy="424.5" r="9.5" fill="#20B2AA"/>
<circle cx="414" cy="424.5" r="5.5" fill="#DAFCFA"/>
<g filter="url(#filter1_d_1_328)">
<path d="M254 65C254 45.67 269.67 30 289 30H635C637.209 30 639 31.7909 639 34V309C639 328.33 623.33 344 604 344H258C255.791 344 254 342.209 254 340V65Z" fill="white"/>
</g>
<rect x="302" y="202" width="40" height="68" rx="6" fill="#FEE355"/>
<rect x="385" y="145" width="40" height="125" rx="6" fill="#FF8181"/>
<rect x="468" y="95" width="40" height="175" rx="6" fill="#81FF9C"/>
<rect x="551" y="56" width="40" height="214" rx="6" fill="#20CFC6"/>
<path d="M311.666 287.742V302H309.078V290.76L305.65 291.893V289.803L311.373 287.742H311.666ZM325.865 293.67V296.062C325.865 297.156 325.755 298.09 325.533 298.865C325.312 299.64 324.993 300.275 324.576 300.77C324.16 301.258 323.661 301.619 323.082 301.854C322.503 302.081 321.858 302.195 321.148 302.195C320.582 302.195 320.055 302.124 319.566 301.98C319.078 301.831 318.639 301.603 318.248 301.297C317.864 300.984 317.532 300.587 317.252 300.105C316.979 299.624 316.767 299.048 316.617 298.377C316.474 297.706 316.402 296.935 316.402 296.062V293.67C316.402 292.576 316.513 291.645 316.734 290.877C316.962 290.109 317.285 289.48 317.701 288.992C318.118 288.504 318.616 288.149 319.195 287.928C319.775 287.7 320.419 287.586 321.129 287.586C321.702 287.586 322.229 287.658 322.711 287.801C323.199 287.944 323.635 288.169 324.02 288.475C324.41 288.774 324.742 289.165 325.016 289.646C325.289 290.122 325.497 290.695 325.641 291.365C325.79 292.029 325.865 292.798 325.865 293.67ZM323.287 296.414V293.309C323.287 292.762 323.255 292.286 323.189 291.883C323.131 291.473 323.043 291.124 322.926 290.838C322.809 290.551 322.662 290.32 322.486 290.145C322.311 289.962 322.109 289.829 321.881 289.744C321.653 289.66 321.402 289.617 321.129 289.617C320.79 289.617 320.488 289.686 320.221 289.822C319.954 289.952 319.729 290.161 319.547 290.447C319.365 290.734 319.225 291.115 319.127 291.59C319.036 292.059 318.99 292.632 318.99 293.309V296.414C318.99 296.961 319.02 297.439 319.078 297.85C319.143 298.26 319.234 298.611 319.352 298.904C319.475 299.197 319.622 299.438 319.791 299.627C319.967 299.809 320.169 299.946 320.396 300.037C320.624 300.122 320.875 300.164 321.148 300.164C321.493 300.164 321.796 300.096 322.057 299.959C322.324 299.822 322.548 299.607 322.73 299.314C322.913 299.015 323.049 298.628 323.141 298.152C323.238 297.671 323.287 297.091 323.287 296.414ZM337.291 293.67V296.062C337.291 297.156 337.18 298.09 336.959 298.865C336.738 299.64 336.419 300.275 336.002 300.77C335.585 301.258 335.087 301.619 334.508 301.854C333.928 302.081 333.284 302.195 332.574 302.195C332.008 302.195 331.48 302.124 330.992 301.98C330.504 301.831 330.064 301.603 329.674 301.297C329.29 300.984 328.958 300.587 328.678 300.105C328.404 299.624 328.193 299.048 328.043 298.377C327.9 297.706 327.828 296.935 327.828 296.062V293.67C327.828 292.576 327.939 291.645 328.16 290.877C328.388 290.109 328.71 289.48 329.127 288.992C329.544 288.504 330.042 288.149 330.621 287.928C331.201 287.7 331.845 287.586 332.555 287.586C333.128 287.586 333.655 287.658 334.137 287.801C334.625 287.944 335.061 288.169 335.445 288.475C335.836 288.774 336.168 289.165 336.441 289.646C336.715 290.122 336.923 290.695 337.066 291.365C337.216 292.029 337.291 292.798 337.291 293.67ZM334.713 296.414V293.309C334.713 292.762 334.68 292.286 334.615 291.883C334.557 291.473 334.469 291.124 334.352 290.838C334.234 290.551 334.088 290.32 333.912 290.145C333.736 289.962 333.535 289.829 333.307 289.744C333.079 289.66 332.828 289.617 332.555 289.617C332.216 289.617 331.913 289.686 331.646 289.822C331.38 289.952 331.155 290.161 330.973 290.447C330.79 290.734 330.65 291.115 330.553 291.59C330.462 292.059 330.416 292.632 330.416 293.309V296.414C330.416 296.961 330.445 297.439 330.504 297.85C330.569 298.26 330.66 298.611 330.777 298.904C330.901 299.197 331.048 299.438 331.217 299.627C331.393 299.809 331.594 299.946 331.822 300.037C332.05 300.122 332.301 300.164 332.574 300.164C332.919 300.164 333.222 300.096 333.482 299.959C333.749 299.822 333.974 299.607 334.156 299.314C334.339 299.015 334.475 298.628 334.566 298.152C334.664 297.671 334.713 297.091 334.713 296.414Z" fill="#A7A7A7"/>
<path d="M399.654 299.969V302H390.025V300.262L394.645 295.271C395.126 294.725 395.507 294.249 395.787 293.846C396.067 293.442 396.266 293.077 396.383 292.752C396.507 292.42 396.568 292.104 396.568 291.805C396.568 291.368 396.49 290.988 396.334 290.662C396.178 290.33 395.95 290.073 395.65 289.891C395.357 289.708 394.996 289.617 394.566 289.617C394.091 289.617 393.684 289.728 393.346 289.949C393.014 290.164 392.76 290.464 392.584 290.848C392.415 291.232 392.33 291.671 392.33 292.166H389.742C389.742 291.326 389.938 290.561 390.328 289.871C390.719 289.174 391.279 288.618 392.008 288.201C392.737 287.785 393.603 287.576 394.605 287.576C395.582 287.576 396.409 287.739 397.086 288.064C397.763 288.383 398.277 288.839 398.629 289.432C398.98 290.024 399.156 290.73 399.156 291.551C399.156 292.007 399.081 292.456 398.932 292.898C398.782 293.341 398.57 293.781 398.297 294.217C398.03 294.646 397.711 295.083 397.34 295.525C396.969 295.968 396.555 296.421 396.1 296.883L393.326 299.969H399.654ZM410.865 293.67V296.062C410.865 297.156 410.755 298.09 410.533 298.865C410.312 299.64 409.993 300.275 409.576 300.77C409.16 301.258 408.661 301.619 408.082 301.854C407.503 302.081 406.858 302.195 406.148 302.195C405.582 302.195 405.055 302.124 404.566 301.98C404.078 301.831 403.639 301.603 403.248 301.297C402.864 300.984 402.532 300.587 402.252 300.105C401.979 299.624 401.767 299.048 401.617 298.377C401.474 297.706 401.402 296.935 401.402 296.062V293.67C401.402 292.576 401.513 291.645 401.734 290.877C401.962 290.109 402.285 289.48 402.701 288.992C403.118 288.504 403.616 288.149 404.195 287.928C404.775 287.7 405.419 287.586 406.129 287.586C406.702 287.586 407.229 287.658 407.711 287.801C408.199 287.944 408.635 288.169 409.02 288.475C409.41 288.774 409.742 289.165 410.016 289.646C410.289 290.122 410.497 290.695 410.641 291.365C410.79 292.029 410.865 292.798 410.865 293.67ZM408.287 296.414V293.309C408.287 292.762 408.255 292.286 408.189 291.883C408.131 291.473 408.043 291.124 407.926 290.838C407.809 290.551 407.662 290.32 407.486 290.145C407.311 289.962 407.109 289.829 406.881 289.744C406.653 289.66 406.402 289.617 406.129 289.617C405.79 289.617 405.488 289.686 405.221 289.822C404.954 289.952 404.729 290.161 404.547 290.447C404.365 290.734 404.225 291.115 404.127 291.59C404.036 292.059 403.99 292.632 403.99 293.309V296.414C403.99 296.961 404.02 297.439 404.078 297.85C404.143 298.26 404.234 298.611 404.352 298.904C404.475 299.197 404.622 299.438 404.791 299.627C404.967 299.809 405.169 299.946 405.396 300.037C405.624 300.122 405.875 300.164 406.148 300.164C406.493 300.164 406.796 300.096 407.057 299.959C407.324 299.822 407.548 299.607 407.73 299.314C407.913 299.015 408.049 298.628 408.141 298.152C408.238 297.671 408.287 297.091 408.287 296.414ZM422.291 293.67V296.062C422.291 297.156 422.18 298.09 421.959 298.865C421.738 299.64 421.419 300.275 421.002 300.77C420.585 301.258 420.087 301.619 419.508 301.854C418.928 302.081 418.284 302.195 417.574 302.195C417.008 302.195 416.48 302.124 415.992 301.98C415.504 301.831 415.064 301.603 414.674 301.297C414.29 300.984 413.958 300.587 413.678 300.105C413.404 299.624 413.193 299.048 413.043 298.377C412.9 297.706 412.828 296.935 412.828 296.062V293.67C412.828 292.576 412.939 291.645 413.16 290.877C413.388 290.109 413.71 289.48 414.127 288.992C414.544 288.504 415.042 288.149 415.621 287.928C416.201 287.7 416.845 287.586 417.555 287.586C418.128 287.586 418.655 287.658 419.137 287.801C419.625 287.944 420.061 288.169 420.445 288.475C420.836 288.774 421.168 289.165 421.441 289.646C421.715 290.122 421.923 290.695 422.066 291.365C422.216 292.029 422.291 292.798 422.291 293.67ZM419.713 296.414V293.309C419.713 292.762 419.68 292.286 419.615 291.883C419.557 291.473 419.469 291.124 419.352 290.838C419.234 290.551 419.088 290.32 418.912 290.145C418.736 289.962 418.535 289.829 418.307 289.744C418.079 289.66 417.828 289.617 417.555 289.617C417.216 289.617 416.913 289.686 416.646 289.822C416.38 289.952 416.155 290.161 415.973 290.447C415.79 290.734 415.65 291.115 415.553 291.59C415.462 292.059 415.416 292.632 415.416 293.309V296.414C415.416 296.961 415.445 297.439 415.504 297.85C415.569 298.26 415.66 298.611 415.777 298.904C415.901 299.197 416.048 299.438 416.217 299.627C416.393 299.809 416.594 299.946 416.822 300.037C417.05 300.122 417.301 300.164 417.574 300.164C417.919 300.164 418.222 300.096 418.482 299.959C418.749 299.822 418.974 299.607 419.156 299.314C419.339 299.015 419.475 298.628 419.566 298.152C419.664 297.671 419.713 297.091 419.713 296.414Z" fill="#A7A7A7"/>
<path d="M473.848 293.748H475.303C475.817 293.748 476.24 293.66 476.572 293.484C476.911 293.302 477.161 293.055 477.324 292.742C477.493 292.423 477.578 292.055 477.578 291.639C477.578 291.229 477.503 290.874 477.354 290.574C477.204 290.268 476.976 290.034 476.67 289.871C476.37 289.702 475.986 289.617 475.518 289.617C475.14 289.617 474.792 289.692 474.473 289.842C474.16 289.992 473.91 290.206 473.721 290.486C473.538 290.76 473.447 291.089 473.447 291.473H470.859C470.859 290.704 471.061 290.031 471.465 289.451C471.875 288.865 472.428 288.406 473.125 288.074C473.822 287.742 474.6 287.576 475.459 287.576C476.396 287.576 477.217 287.732 477.92 288.045C478.63 288.351 479.18 288.803 479.57 289.402C479.967 290.001 480.166 290.743 480.166 291.629C480.166 292.052 480.065 292.475 479.863 292.898C479.668 293.315 479.378 293.693 478.994 294.031C478.617 294.363 478.151 294.633 477.598 294.842C477.051 295.044 476.423 295.145 475.713 295.145H473.848V293.748ZM473.848 295.74V294.363H475.713C476.514 294.363 477.207 294.458 477.793 294.646C478.385 294.829 478.874 295.089 479.258 295.428C479.642 295.76 479.925 296.147 480.107 296.59C480.296 297.033 480.391 297.508 480.391 298.016C480.391 298.68 480.267 299.272 480.02 299.793C479.772 300.307 479.424 300.743 478.975 301.102C478.532 301.46 478.011 301.733 477.412 301.922C476.813 302.104 476.165 302.195 475.469 302.195C474.863 302.195 474.274 302.114 473.701 301.951C473.135 301.782 472.624 301.531 472.168 301.199C471.712 300.861 471.351 300.438 471.084 299.93C470.817 299.415 470.684 298.82 470.684 298.143H473.271C473.271 298.533 473.366 298.882 473.555 299.188C473.75 299.493 474.017 299.734 474.355 299.91C474.701 300.079 475.088 300.164 475.518 300.164C475.993 300.164 476.4 300.079 476.738 299.91C477.083 299.734 477.347 299.487 477.529 299.168C477.712 298.842 477.803 298.455 477.803 298.006C477.803 297.472 477.702 297.039 477.5 296.707C477.298 296.375 477.008 296.131 476.631 295.975C476.26 295.818 475.817 295.74 475.303 295.74H473.848ZM491.865 293.67V296.062C491.865 297.156 491.755 298.09 491.533 298.865C491.312 299.64 490.993 300.275 490.576 300.77C490.16 301.258 489.661 301.619 489.082 301.854C488.503 302.081 487.858 302.195 487.148 302.195C486.582 302.195 486.055 302.124 485.566 301.98C485.078 301.831 484.639 301.603 484.248 301.297C483.864 300.984 483.532 300.587 483.252 300.105C482.979 299.624 482.767 299.048 482.617 298.377C482.474 297.706 482.402 296.935 482.402 296.062V293.67C482.402 292.576 482.513 291.645 482.734 290.877C482.962 290.109 483.285 289.48 483.701 288.992C484.118 288.504 484.616 288.149 485.195 287.928C485.775 287.7 486.419 287.586 487.129 287.586C487.702 287.586 488.229 287.658 488.711 287.801C489.199 287.944 489.635 288.169 490.02 288.475C490.41 288.774 490.742 289.165 491.016 289.646C491.289 290.122 491.497 290.695 491.641 291.365C491.79 292.029 491.865 292.798 491.865 293.67ZM489.287 296.414V293.309C489.287 292.762 489.255 292.286 489.189 291.883C489.131 291.473 489.043 291.124 488.926 290.838C488.809 290.551 488.662 290.32 488.486 290.145C488.311 289.962 488.109 289.829 487.881 289.744C487.653 289.66 487.402 289.617 487.129 289.617C486.79 289.617 486.488 289.686 486.221 289.822C485.954 289.952 485.729 290.161 485.547 290.447C485.365 290.734 485.225 291.115 485.127 291.59C485.036 292.059 484.99 292.632 484.99 293.309V296.414C484.99 296.961 485.02 297.439 485.078 297.85C485.143 298.26 485.234 298.611 485.352 298.904C485.475 299.197 485.622 299.438 485.791 299.627C485.967 299.809 486.169 299.946 486.396 300.037C486.624 300.122 486.875 300.164 487.148 300.164C487.493 300.164 487.796 300.096 488.057 299.959C488.324 299.822 488.548 299.607 488.73 299.314C488.913 299.015 489.049 298.628 489.141 298.152C489.238 297.671 489.287 297.091 489.287 296.414ZM503.291 293.67V296.062C503.291 297.156 503.18 298.09 502.959 298.865C502.738 299.64 502.419 300.275 502.002 300.77C501.585 301.258 501.087 301.619 500.508 301.854C499.928 302.081 499.284 302.195 498.574 302.195C498.008 302.195 497.48 302.124 496.992 301.98C496.504 301.831 496.064 301.603 495.674 301.297C495.29 300.984 494.958 300.587 494.678 300.105C494.404 299.624 494.193 299.048 494.043 298.377C493.9 297.706 493.828 296.935 493.828 296.062V293.67C493.828 292.576 493.939 291.645 494.16 290.877C494.388 290.109 494.71 289.48 495.127 288.992C495.544 288.504 496.042 288.149 496.621 287.928C497.201 287.7 497.845 287.586 498.555 287.586C499.128 287.586 499.655 287.658 500.137 287.801C500.625 287.944 501.061 288.169 501.445 288.475C501.836 288.774 502.168 289.165 502.441 289.646C502.715 290.122 502.923 290.695 503.066 291.365C503.216 292.029 503.291 292.798 503.291 293.67ZM500.713 296.414V293.309C500.713 292.762 500.68 292.286 500.615 291.883C500.557 291.473 500.469 291.124 500.352 290.838C500.234 290.551 500.088 290.32 499.912 290.145C499.736 289.962 499.535 289.829 499.307 289.744C499.079 289.66 498.828 289.617 498.555 289.617C498.216 289.617 497.913 289.686 497.646 289.822C497.38 289.952 497.155 290.161 496.973 290.447C496.79 290.734 496.65 291.115 496.553 291.59C496.462 292.059 496.416 292.632 496.416 293.309V296.414C496.416 296.961 496.445 297.439 496.504 297.85C496.569 298.26 496.66 298.611 496.777 298.904C496.901 299.197 497.048 299.438 497.217 299.627C497.393 299.809 497.594 299.946 497.822 300.037C498.05 300.122 498.301 300.164 498.574 300.164C498.919 300.164 499.222 300.096 499.482 299.959C499.749 299.822 499.974 299.607 500.156 299.314C500.339 299.015 500.475 298.628 500.566 298.152C500.664 297.671 500.713 297.091 500.713 296.414Z" fill="#A7A7A7"/>
<path d="M561.898 296.814V298.846H551.654L551.547 297.283L557.572 287.781H559.633L557.406 291.561L554.174 296.814H561.898ZM560.209 287.781V302H557.621V287.781H560.209ZM572.865 293.67V296.062C572.865 297.156 572.755 298.09 572.533 298.865C572.312 299.64 571.993 300.275 571.576 300.77C571.16 301.258 570.661 301.619 570.082 301.854C569.503 302.081 568.858 302.195 568.148 302.195C567.582 302.195 567.055 302.124 566.566 301.98C566.078 301.831 565.639 301.603 565.248 301.297C564.864 300.984 564.532 300.587 564.252 300.105C563.979 299.624 563.767 299.048 563.617 298.377C563.474 297.706 563.402 296.935 563.402 296.062V293.67C563.402 292.576 563.513 291.645 563.734 290.877C563.962 290.109 564.285 289.48 564.701 288.992C565.118 288.504 565.616 288.149 566.195 287.928C566.775 287.7 567.419 287.586 568.129 287.586C568.702 287.586 569.229 287.658 569.711 287.801C570.199 287.944 570.635 288.169 571.02 288.475C571.41 288.774 571.742 289.165 572.016 289.646C572.289 290.122 572.497 290.695 572.641 291.365C572.79 292.029 572.865 292.798 572.865 293.67ZM570.287 296.414V293.309C570.287 292.762 570.255 292.286 570.189 291.883C570.131 291.473 570.043 291.124 569.926 290.838C569.809 290.551 569.662 290.32 569.486 290.145C569.311 289.962 569.109 289.829 568.881 289.744C568.653 289.66 568.402 289.617 568.129 289.617C567.79 289.617 567.488 289.686 567.221 289.822C566.954 289.952 566.729 290.161 566.547 290.447C566.365 290.734 566.225 291.115 566.127 291.59C566.036 292.059 565.99 292.632 565.99 293.309V296.414C565.99 296.961 566.02 297.439 566.078 297.85C566.143 298.26 566.234 298.611 566.352 298.904C566.475 299.197 566.622 299.438 566.791 299.627C566.967 299.809 567.169 299.946 567.396 300.037C567.624 300.122 567.875 300.164 568.148 300.164C568.493 300.164 568.796 300.096 569.057 299.959C569.324 299.822 569.548 299.607 569.73 299.314C569.913 299.015 570.049 298.628 570.141 298.152C570.238 297.671 570.287 297.091 570.287 296.414ZM584.291 293.67V296.062C584.291 297.156 584.18 298.09 583.959 298.865C583.738 299.64 583.419 300.275 583.002 300.77C582.585 301.258 582.087 301.619 581.508 301.854C580.928 302.081 580.284 302.195 579.574 302.195C579.008 302.195 578.48 302.124 577.992 301.98C577.504 301.831 577.064 301.603 576.674 301.297C576.29 300.984 575.958 300.587 575.678 300.105C575.404 299.624 575.193 299.048 575.043 298.377C574.9 297.706 574.828 296.935 574.828 296.062V293.67C574.828 292.576 574.939 291.645 575.16 290.877C575.388 290.109 575.71 289.48 576.127 288.992C576.544 288.504 577.042 288.149 577.621 287.928C578.201 287.7 578.845 287.586 579.555 287.586C580.128 287.586 580.655 287.658 581.137 287.801C581.625 287.944 582.061 288.169 582.445 288.475C582.836 288.774 583.168 289.165 583.441 289.646C583.715 290.122 583.923 290.695 584.066 291.365C584.216 292.029 584.291 292.798 584.291 293.67ZM581.713 296.414V293.309C581.713 292.762 581.68 292.286 581.615 291.883C581.557 291.473 581.469 291.124 581.352 290.838C581.234 290.551 581.088 290.32 580.912 290.145C580.736 289.962 580.535 289.829 580.307 289.744C580.079 289.66 579.828 289.617 579.555 289.617C579.216 289.617 578.913 289.686 578.646 289.822C578.38 289.952 578.155 290.161 577.973 290.447C577.79 290.734 577.65 291.115 577.553 291.59C577.462 292.059 577.416 292.632 577.416 293.309V296.414C577.416 296.961 577.445 297.439 577.504 297.85C577.569 298.26 577.66 298.611 577.777 298.904C577.901 299.197 578.048 299.438 578.217 299.627C578.393 299.809 578.594 299.946 578.822 300.037C579.05 300.122 579.301 300.164 579.574 300.164C579.919 300.164 580.222 300.096 580.482 299.959C580.749 299.822 580.974 299.607 581.156 299.314C581.339 299.015 581.475 298.628 581.566 298.152C581.664 297.671 581.713 297.091 581.713 296.414Z" fill="#A7A7A7"/>
<path d="M303.199 52.3594V68H299.439V52.3594H303.199ZM309.456 58.8584V68H305.836V56.377H309.231L309.456 58.8584ZM309.027 61.791L308.178 61.8125C308.178 60.9245 308.285 60.1331 308.5 59.4385C308.715 58.7367 309.019 58.1423 309.413 57.6553C309.807 57.1683 310.276 56.7995 310.821 56.5488C311.372 56.291 311.984 56.1621 312.657 56.1621C313.195 56.1621 313.685 56.2409 314.129 56.3984C314.58 56.556 314.967 56.8102 315.289 57.1611C315.619 57.512 315.869 57.9775 316.041 58.5576C316.22 59.1305 316.31 59.8395 316.31 60.6846V68H312.668V60.6738C312.668 60.2083 312.604 59.8538 312.475 59.6104C312.346 59.3597 312.16 59.1878 311.916 59.0947C311.673 59.0016 311.376 58.9551 311.025 58.9551C310.652 58.9551 310.337 59.0267 310.079 59.1699C309.822 59.3132 309.614 59.5137 309.456 59.7715C309.306 60.0221 309.195 60.3193 309.123 60.6631C309.059 61.0068 309.027 61.3828 309.027 61.791ZM322.728 65.5186L325.016 56.377H328.83L325.027 68H322.771L322.728 65.5186ZM321.375 56.377L323.63 65.5186L323.609 68H321.342L317.55 56.377H321.375ZM335.602 68.2148C334.657 68.2148 333.812 68.068 333.067 67.7744C332.322 67.4736 331.692 67.0618 331.177 66.5391C330.668 66.0163 330.278 65.4147 330.006 64.7344C329.741 64.054 329.608 63.3343 329.608 62.5752V62.167C329.608 61.3148 329.726 60.527 329.963 59.8037C330.199 59.0732 330.55 58.4359 331.015 57.8916C331.481 57.3473 332.065 56.9248 332.766 56.624C333.468 56.3161 334.285 56.1621 335.216 56.1621C336.039 56.1621 336.777 56.2946 337.429 56.5596C338.08 56.8245 338.632 57.2041 339.083 57.6982C339.541 58.1924 339.889 58.7904 340.125 59.4922C340.368 60.194 340.49 60.9818 340.49 61.8555V63.3271H330.994V61.0605H336.956V60.7812C336.963 60.3945 336.895 60.0651 336.752 59.793C336.616 59.5208 336.415 59.3132 336.15 59.1699C335.885 59.0267 335.563 58.9551 335.183 58.9551C334.79 58.9551 334.464 59.041 334.206 59.2129C333.955 59.3848 333.758 59.6211 333.615 59.9219C333.479 60.2155 333.382 60.5557 333.325 60.9424C333.268 61.3291 333.239 61.7373 333.239 62.167V62.5752C333.239 63.0049 333.296 63.3952 333.411 63.7461C333.533 64.097 333.705 64.3978 333.927 64.6484C334.156 64.8919 334.428 65.0817 334.743 65.2178C335.065 65.3538 335.431 65.4219 335.839 65.4219C336.333 65.4219 336.82 65.3288 337.3 65.1426C337.779 64.9564 338.191 64.6484 338.535 64.2188L340.179 66.1738C339.942 66.5104 339.606 66.8363 339.169 67.1514C338.739 67.4665 338.223 67.7243 337.622 67.9248C337.02 68.1182 336.347 68.2148 335.602 68.2148ZM348.273 64.7344C348.273 64.5339 348.205 64.362 348.068 64.2188C347.94 64.0684 347.71 63.9323 347.381 63.8105C347.052 63.6816 346.59 63.5527 345.995 63.4238C345.429 63.3021 344.896 63.141 344.395 62.9404C343.901 62.7399 343.467 62.4964 343.095 62.21C342.722 61.9235 342.429 61.5833 342.214 61.1895C342.006 60.7956 341.902 60.3444 341.902 59.8359C341.902 59.3418 342.006 58.8763 342.214 58.4395C342.429 57.9954 342.74 57.6051 343.149 57.2686C343.564 56.9248 344.069 56.6562 344.663 56.4629C345.258 56.2624 345.934 56.1621 346.693 56.1621C347.739 56.1621 348.641 56.3232 349.401 56.6455C350.16 56.9606 350.743 57.4046 351.151 57.9775C351.567 58.5433 351.775 59.1986 351.775 59.9434H348.154C348.154 59.6497 348.104 59.3991 348.004 59.1914C347.911 58.9837 347.757 58.8262 347.542 58.7188C347.327 58.6042 347.041 58.5469 346.683 58.5469C346.432 58.5469 346.203 58.5934 345.995 58.6865C345.795 58.7796 345.634 58.9085 345.512 59.0732C345.39 59.238 345.329 59.4313 345.329 59.6533C345.329 59.8109 345.365 59.9541 345.437 60.083C345.515 60.2048 345.634 60.3193 345.791 60.4268C345.949 60.527 346.149 60.6201 346.393 60.7061C346.636 60.7848 346.93 60.8564 347.274 60.9209C348.054 61.0641 348.785 61.2682 349.465 61.5332C350.145 61.7982 350.697 62.1742 351.119 62.6611C351.549 63.1481 351.764 63.8034 351.764 64.627C351.764 65.1426 351.646 65.6188 351.409 66.0557C351.173 66.4854 350.833 66.8649 350.389 67.1943C349.945 67.5166 349.411 67.7673 348.788 67.9463C348.165 68.1253 347.463 68.2148 346.683 68.2148C345.573 68.2148 344.635 68.0179 343.868 67.624C343.102 67.223 342.522 66.7217 342.128 66.1201C341.741 65.5114 341.548 64.8955 341.548 64.2725H344.921C344.935 64.6305 345.021 64.9242 345.179 65.1533C345.344 65.3825 345.562 65.5508 345.834 65.6582C346.106 65.7656 346.421 65.8193 346.779 65.8193C347.109 65.8193 347.381 65.7728 347.596 65.6797C347.818 65.5866 347.986 65.4613 348.101 65.3037C348.215 65.139 348.273 64.9492 348.273 64.7344ZM359.804 56.377V58.8906H352.8V56.377H359.804ZM354.272 53.4873H357.892V64.208C357.892 64.516 357.928 64.7559 357.999 64.9277C358.071 65.0924 358.193 65.2106 358.365 65.2822C358.544 65.3467 358.78 65.3789 359.074 65.3789C359.281 65.3789 359.453 65.3753 359.589 65.3682C359.725 65.3538 359.854 65.3359 359.976 65.3145V67.9033C359.668 68.0036 359.346 68.0788 359.009 68.1289C358.673 68.1862 358.315 68.2148 357.935 68.2148C357.162 68.2148 356.499 68.0931 355.948 67.8496C355.403 67.6061 354.988 67.223 354.702 66.7002C354.415 66.1774 354.272 65.4971 354.272 64.6592V53.4873ZM365.116 58.8369V68H361.496V56.377H364.89L365.116 58.8369ZM364.675 61.791L363.848 61.8125C363.848 60.9961 363.945 60.2441 364.138 59.5566C364.332 58.8691 364.618 58.2712 364.998 57.7627C365.377 57.2542 365.843 56.8604 366.394 56.5811C366.953 56.3018 367.597 56.1621 368.328 56.1621C368.836 56.1621 369.298 56.2409 369.714 56.3984C370.129 56.5488 370.487 56.7887 370.788 57.1182C371.089 57.4404 371.318 57.863 371.475 58.3857C371.64 58.9014 371.722 59.5208 371.722 60.2441V68H368.102V60.7061C368.102 60.2119 368.045 59.8395 367.93 59.5889C367.823 59.3382 367.665 59.1699 367.458 59.084C367.25 58.998 366.996 58.9551 366.695 58.9551C366.38 58.9551 366.097 59.0267 365.846 59.1699C365.596 59.3132 365.381 59.5137 365.202 59.7715C365.03 60.0221 364.897 60.3193 364.804 60.6631C364.718 61.0068 364.675 61.3828 364.675 61.791ZM371.314 61.791L370.304 61.8125C370.304 60.9961 370.394 60.2441 370.573 59.5566C370.759 58.8691 371.035 58.2712 371.4 57.7627C371.772 57.2542 372.234 56.8604 372.786 56.5811C373.337 56.3018 373.978 56.1621 374.709 56.1621C375.239 56.1621 375.726 56.2409 376.17 56.3984C376.614 56.556 376.997 56.8102 377.319 57.1611C377.641 57.512 377.892 57.9775 378.071 58.5576C378.25 59.1305 378.34 59.8395 378.34 60.6846V68H374.709V60.6846C374.709 60.2048 374.651 59.8431 374.537 59.5996C374.429 59.349 374.272 59.1807 374.064 59.0947C373.856 59.0016 373.609 58.9551 373.323 58.9551C372.979 58.9551 372.682 59.0267 372.431 59.1699C372.181 59.3132 371.969 59.5137 371.798 59.7715C371.633 60.0221 371.511 60.3193 371.432 60.6631C371.354 61.0068 371.314 61.3828 371.314 61.791ZM386.262 68.2148C385.316 68.2148 384.471 68.068 383.727 67.7744C382.982 67.4736 382.352 67.0618 381.836 66.5391C381.327 66.0163 380.937 65.4147 380.665 64.7344C380.4 64.054 380.268 63.3343 380.268 62.5752V62.167C380.268 61.3148 380.386 60.527 380.622 59.8037C380.858 59.0732 381.209 58.4359 381.675 57.8916C382.14 57.3473 382.724 56.9248 383.426 56.624C384.128 56.3161 384.944 56.1621 385.875 56.1621C386.699 56.1621 387.436 56.2946 388.088 56.5596C388.74 56.8245 389.291 57.2041 389.742 57.6982C390.2 58.1924 390.548 58.7904 390.784 59.4922C391.028 60.194 391.149 60.9818 391.149 61.8555V63.3271H381.653V61.0605H387.615V60.7812C387.622 60.3945 387.554 60.0651 387.411 59.793C387.275 59.5208 387.075 59.3132 386.81 59.1699C386.545 59.0267 386.222 58.9551 385.843 58.9551C385.449 58.9551 385.123 59.041 384.865 59.2129C384.615 59.3848 384.418 59.6211 384.274 59.9219C384.138 60.2155 384.042 60.5557 383.984 60.9424C383.927 61.3291 383.898 61.7373 383.898 62.167V62.5752C383.898 63.0049 383.956 63.3952 384.07 63.7461C384.192 64.097 384.364 64.3978 384.586 64.6484C384.815 64.8919 385.087 65.0817 385.402 65.2178C385.725 65.3538 386.09 65.4219 386.498 65.4219C386.992 65.4219 387.479 65.3288 387.959 65.1426C388.439 64.9564 388.851 64.6484 389.194 64.2188L390.838 66.1738C390.602 66.5104 390.265 66.8363 389.828 67.1514C389.398 67.4665 388.883 67.7243 388.281 67.9248C387.68 68.1182 387.006 68.2148 386.262 68.2148ZM396.397 58.8584V68H392.777V56.377H396.171L396.397 58.8584ZM395.967 61.791L395.118 61.8125C395.118 60.9245 395.226 60.1331 395.441 59.4385C395.656 58.7367 395.96 58.1423 396.354 57.6553C396.748 57.1683 397.217 56.7995 397.761 56.5488C398.312 56.291 398.925 56.1621 399.598 56.1621C400.135 56.1621 400.626 56.2409 401.07 56.3984C401.521 56.556 401.907 56.8102 402.23 57.1611C402.559 57.512 402.81 57.9775 402.982 58.5576C403.161 59.1305 403.25 59.8395 403.25 60.6846V68H399.609V60.6738C399.609 60.2083 399.544 59.8538 399.415 59.6104C399.286 59.3597 399.1 59.1878 398.857 59.0947C398.613 59.0016 398.316 58.9551 397.965 58.9551C397.593 58.9551 397.278 59.0267 397.02 59.1699C396.762 59.3132 396.554 59.5137 396.397 59.7715C396.246 60.0221 396.135 60.3193 396.064 60.6631C395.999 61.0068 395.967 61.3828 395.967 61.791ZM411.602 56.377V58.8906H404.598V56.377H411.602ZM406.07 53.4873H409.69V64.208C409.69 64.516 409.726 64.7559 409.797 64.9277C409.869 65.0924 409.991 65.2106 410.163 65.2822C410.342 65.3467 410.578 65.3789 410.872 65.3789C411.079 65.3789 411.251 65.3753 411.387 65.3682C411.523 65.3538 411.652 65.3359 411.774 65.3145V67.9033C411.466 68.0036 411.144 68.0788 410.807 68.1289C410.471 68.1862 410.112 68.2148 409.733 68.2148C408.959 68.2148 408.297 68.0931 407.746 67.8496C407.201 67.6061 406.786 67.223 406.5 66.7002C406.213 66.1774 406.07 65.4971 406.07 64.6592V53.4873ZM419.352 64.7344C419.352 64.5339 419.284 64.362 419.148 64.2188C419.019 64.0684 418.79 63.9323 418.461 63.8105C418.131 63.6816 417.669 63.5527 417.075 63.4238C416.509 63.3021 415.976 63.141 415.474 62.9404C414.98 62.7399 414.547 62.4964 414.175 62.21C413.802 61.9235 413.509 61.5833 413.294 61.1895C413.086 60.7956 412.982 60.3444 412.982 59.8359C412.982 59.3418 413.086 58.8763 413.294 58.4395C413.509 57.9954 413.82 57.6051 414.228 57.2686C414.644 56.9248 415.149 56.6562 415.743 56.4629C416.337 56.2624 417.014 56.1621 417.773 56.1621C418.819 56.1621 419.721 56.3232 420.48 56.6455C421.239 56.9606 421.823 57.4046 422.231 57.9775C422.647 58.5433 422.854 59.1986 422.854 59.9434H419.234C419.234 59.6497 419.184 59.3991 419.084 59.1914C418.991 58.9837 418.837 58.8262 418.622 58.7188C418.407 58.6042 418.121 58.5469 417.762 58.5469C417.512 58.5469 417.283 58.5934 417.075 58.6865C416.874 58.7796 416.713 58.9085 416.592 59.0732C416.47 59.238 416.409 59.4313 416.409 59.6533C416.409 59.8109 416.445 59.9541 416.516 60.083C416.595 60.2048 416.713 60.3193 416.871 60.4268C417.028 60.527 417.229 60.6201 417.472 60.7061C417.716 60.7848 418.01 60.8564 418.353 60.9209C419.134 61.0641 419.864 61.2682 420.545 61.5332C421.225 61.7982 421.776 62.1742 422.199 62.6611C422.629 63.1481 422.844 63.8034 422.844 64.627C422.844 65.1426 422.725 65.6188 422.489 66.0557C422.253 66.4854 421.913 66.8649 421.469 67.1943C421.025 67.5166 420.491 67.7673 419.868 67.9463C419.245 68.1253 418.543 68.2148 417.762 68.2148C416.652 68.2148 415.714 68.0179 414.948 67.624C414.182 67.223 413.602 66.7217 413.208 66.1201C412.821 65.5114 412.628 64.8955 412.628 64.2725H416.001C416.015 64.6305 416.101 64.9242 416.259 65.1533C416.423 65.3825 416.642 65.5508 416.914 65.6582C417.186 65.7656 417.501 65.8193 417.859 65.8193C418.189 65.8193 418.461 65.7728 418.676 65.6797C418.898 65.5866 419.066 65.4613 419.18 65.3037C419.295 65.139 419.352 64.9492 419.352 64.7344Z" fill="#92BBB9" fill-opacity="0.8"/>
<g filter="url(#filter2_d_1_328)">
<circle cx="115.368" cy="128.368" r="34" transform="rotate(-6 115.368 128.368)" fill="#FF8181"/>
</g>
<g filter="url(#filter3_d_1_328)">
<circle cx="621.5" cy="417.5" r="27.5" fill="#81FE9C"/>
</g>
<path d="M620.064 428.037L622.345 406.339L623.735 406.485L621.454 428.183L620.064 428.037ZM625.624 413.702C625.623 412.953 625.35 412.342 624.806 411.868C624.267 411.394 623.532 411.108 622.599 411.01C621.944 410.941 621.371 410.981 620.881 411.13C620.392 411.278 620.005 411.509 619.72 411.822C619.436 412.135 619.268 412.508 619.217 412.943C619.179 413.304 619.228 413.627 619.364 413.909C619.505 414.193 619.71 414.443 619.979 414.66C620.248 414.871 620.551 415.057 620.889 415.218C621.226 415.379 621.568 415.521 621.915 415.643L623.5 416.221C624.139 416.442 624.748 416.715 625.325 417.038C625.908 417.362 626.419 417.747 626.858 418.193C627.302 418.64 627.636 419.158 627.86 419.747C628.083 420.336 628.156 421.007 628.077 421.758C627.97 422.775 627.616 423.644 627.015 424.363C626.414 425.077 625.599 425.6 624.57 425.931C623.548 426.258 622.341 426.348 620.951 426.202C619.601 426.06 618.45 425.728 617.499 425.205C616.555 424.683 615.845 423.992 615.369 423.131C614.9 422.27 614.703 421.261 614.779 420.103L617.873 420.429C617.855 421.038 617.988 421.56 618.274 421.996C618.559 422.432 618.955 422.776 619.459 423.029C619.97 423.283 620.553 423.444 621.208 423.513C621.892 423.585 622.501 423.546 623.037 423.397C623.579 423.242 624.016 422.997 624.348 422.66C624.681 422.318 624.877 421.899 624.935 421.402C624.977 420.949 624.883 420.563 624.654 420.241C624.426 419.915 624.087 419.628 623.639 419.381C623.197 419.128 622.674 418.891 622.069 418.667L620.147 417.951C618.756 417.433 617.685 416.758 616.932 415.925C616.186 415.087 615.879 414.046 616.009 412.803C616.117 411.78 616.488 410.913 617.122 410.203C617.763 409.493 618.585 408.977 619.59 408.654C620.596 408.326 621.706 408.225 622.921 408.353C624.153 408.483 625.21 408.811 626.092 409.338C626.979 409.859 627.649 410.527 628.101 411.34C628.553 412.147 628.736 413.041 628.65 414.02L625.624 413.702Z" fill="white"/>
<g filter="url(#filter4_d_1_328)">
<circle cx="143" cy="291" r="24" transform="rotate(-6 143 291)" fill="#46D9D1"/>
</g>
<g clip-path="url(#clip0_1_328)">
<path d="M149.713 291H145C143.896 291 143 290.105 143 289V284.274C143.003 283.342 142.572 282.461 141.834 281.891C141.135 281.337 140.218 281.14 139.353 281.357C133.474 282.817 129.89 288.766 131.35 294.646C132.378 298.788 135.716 301.958 139.906 302.771C145.63 303.867 151.215 300.308 152.64 294.657C152.858 293.791 152.661 292.873 152.107 292.172C151.531 291.436 150.649 291.004 149.713 291Z" fill="white"/>
<path d="M154.651 286.446C154.423 285.598 154.083 284.783 153.64 284.024C152.308 281.739 150.133 280.069 147.582 279.372C147.414 279.327 147.038 279.3 147.038 279.3C146.903 279.3 146.325 279.3 145.867 279.671C145.194 280.201 145.088 280.803 145.078 280.85C145.043 280.998 145.025 281.149 145.024 281.3V286C145.024 287.657 146.367 289 148.024 289H152.743C153.369 289.002 153.958 288.705 154.329 288.2C154.603 287.83 154.744 287.379 154.729 286.919C154.721 286.759 154.695 286.6 154.651 286.446Z" fill="white"/>
</g>
<path d="M129.835 128.4L116.808 138.205L102.028 131.323C101.708 131.174 101.341 131.158 101.009 131.279C100.676 131.4 100.406 131.648 100.257 131.969C100.107 132.289 100.092 132.656 100.213 132.988C100.334 133.321 100.582 133.591 100.903 133.74L116.409 140.959C116.628 141.061 116.871 141.102 117.112 141.077C117.352 141.051 117.581 140.961 117.775 140.816L131.441 130.531C131.724 130.318 131.91 130.002 131.96 129.652C132.009 129.302 131.917 128.946 131.705 128.664C131.492 128.381 131.176 128.195 130.826 128.145C130.476 128.096 130.12 128.187 129.838 128.4L129.835 128.4Z" fill="white"/>
<path d="M99.7757 127.057L113.85 133.61C114.502 133.914 115.224 134.035 115.939 133.96C116.655 133.885 117.336 133.616 117.91 133.183L130.314 123.847C130.498 123.709 130.643 123.525 130.734 123.314C130.826 123.103 130.861 122.872 130.837 122.643C130.813 122.415 130.731 122.196 130.597 122.009C130.463 121.821 130.284 121.672 130.075 121.575L116.001 115.022C115.349 114.718 114.627 114.597 113.912 114.672C113.197 114.747 112.515 115.016 111.941 115.449L99.5368 124.784C99.3532 124.923 99.2085 125.106 99.1168 125.317C99.0251 125.528 98.9895 125.76 99.0136 125.988C99.0376 126.217 99.1204 126.436 99.254 126.623C99.3875 126.81 99.5673 126.96 99.7757 127.057Z" fill="white"/>
<defs>
<filter id="filter0_d_1_328" x="0" y="293" width="641" height="480" filterUnits="userSpaceOnUse" color-interpolation-filters="sRGB">
<feFlood flood-opacity="0" result="BackgroundImageFix"/>
<feColorMatrix in="SourceAlpha" type="matrix" values="0 0 0 0 0 0 0 0 0 0 0 0 0 0 0 0 0 0 127 0" result="hardAlpha"/>
<feOffset dx="15" dy="20"/>
<feGaussianBlur stdDeviation="30"/>
<feComposite in2="hardAlpha" operator="out"/>
<feColorMatrix type="matrix" values="0 0 0 0 0 0 0 0 0 0 0 0 0 0 0 0 0 0 0.08 0"/>
<feBlend mode="normal" in2="BackgroundImageFix" result="effect1_dropShadow_1_328"/>
<feBlend mode="normal" in="SourceGraphic" in2="effect1_dropShadow_1_328" result="shape"/>
</filter>
<filter id="filter1_d_1_328" x="208" y="0" width="505" height="434" filterUnits="userSpaceOnUse" color-interpolation-filters="sRGB">
<feFlood flood-opacity="0" result="BackgroundImageFix"/>
<feColorMatrix in="SourceAlpha" type="matrix" values="0 0 0 0 0 0 0 0 0 0 0 0 0 0 0 0 0 0 127 0" result="hardAlpha"/>
<feOffset dx="14" dy="30"/>
<feGaussianBlur stdDeviation="30"/>
<feComposite in2="hardAlpha" operator="out"/>
<feColorMatrix type="matrix" values="0 0 0 0 0 0 0 0 0 0 0 0 0 0 0 0 0 0 0.12 0"/>
<feBlend mode="normal" in2="BackgroundImageFix" result="effect1_dropShadow_1_328"/>
<feBlend mode="normal" in="SourceGraphic" in2="effect1_dropShadow_1_328" result="shape"/>
</filter>
<filter id="filter2_d_1_328" x="61.365" y="84.365" width="108.006" height="108.005" filterUnits="userSpaceOnUse" color-interpolation-filters="sRGB">
<feFlood flood-opacity="0" result="BackgroundImageFix"/>
<feColorMatrix in="SourceAlpha" type="matrix" values="0 0 0 0 0 0 0 0 0 0 0 0 0 0 0 0 0 0 127 0" result="hardAlpha"/>
<feOffset dy="10"/>
<feGaussianBlur stdDeviation="10"/>
<feComposite in2="hardAlpha" operator="out"/>
<feColorMatrix type="matrix" values="0 0 0 0 1 0 0 0 0 0.419608 0 0 0 0 0.419608 0 0 0 0.2 0"/>
<feBlend mode="normal" in2="BackgroundImageFix" result="effect1_dropShadow_1_328"/>
<feBlend mode="normal" in="SourceGraphic" in2="effect1_dropShadow_1_328" result="shape"/>
</filter>
<filter id="filter3_d_1_328" x="574" y="390" width="95" height="95" filterUnits="userSpaceOnUse" color-interpolation-filters="sRGB">
<feFlood flood-opacity="0" result="BackgroundImageFix"/>
<feColorMatrix in="SourceAlpha" type="matrix" values="0 0 0 0 0 0 0 0 0 0 0 0 0 0 0 0 0 0 127 0" result="hardAlpha"/>
<feOffset dy="20"/>
<feGaussianBlur stdDeviation="10"/>
<feComposite in2="hardAlpha" operator="out"/>
<feColorMatrix type="matrix" values="0 0 0 0 0.246528 0 0 0 0 0.833333 0 0 0 0 0.370349 0 0 0 0.2 0"/>
<feBlend mode="normal" in2="BackgroundImageFix" result="effect1_dropShadow_1_328"/>
<feBlend mode="normal" in="SourceGraphic" in2="effect1_dropShadow_1_328" result="shape"/>
</filter>
<filter id="filter4_d_1_328" x="92.9981" y="250.998" width="100.004" height="100.004" filterUnits="userSpaceOnUse" color-interpolation-filters="sRGB">
<feFlood flood-opacity="0" result="BackgroundImageFix"/>
<feColorMatrix in="SourceAlpha" type="matrix" values="0 0 0 0 0 0 0 0 0 0 0 0 0 0 0 0 0 0 127 0" result="hardAlpha"/>
<feOffset dy="10"/>
<feGaussianBlur stdDeviation="13"/>
<feComposite in2="hardAlpha" operator="out"/>
<feColorMatrix type="matrix" values="0 0 0 0 0 0 0 0 0 0.501961 0 0 0 0 0.501961 0 0 0 0.2 0"/>
<feBlend mode="normal" in2="BackgroundImageFix" result="effect1_dropShadow_1_328"/>
<feBlend mode="normal" in="SourceGraphic" in2="effect1_dropShadow_1_328" result="shape"/>
</filter>
<linearGradient id="paint0_linear_1_328" x1="225" y1="68" x2="181" y2="659" gradientUnits="userSpaceOnUse">
<stop stop-color="#E9E9E9"/>
<stop offset="1" stop-color="#E9E9E9" stop-opacity="0"/>
</linearGradient>
<linearGradient id="paint1_linear_1_328" x1="259" y1="454.5" x2="286" y2="612.5" gradientUnits="userSpaceOnUse">
<stop stop-color="#47FFF5"/>
<stop offset="1" stop-color="#20B2AA" stop-opacity="0"/>
</linearGradient>
<clipPath id="clip0_1_328">
<rect width="24" height="24" fill="white" transform="translate(131 279)"/>
</clipPath>
</defs>
</svg>
